<svg height="201" viewBox="0 0 1366 201" width="1366" xmlns="http://www.w3.org/2000/svg"><path d="m933.435 193.589c17.423-15.29 56.033-49.073 59.204-50.977 4.107-2.464 3.698-4.514 7.803-4.109 4.107.414 6.574 3.287 10.27 2.879 3.7-.411 2.056-2.879 7.393-4.927 5.34-2.055 3.285 2.462 9.448.819a31.632 31.632 0 0 1 5.296-.942c-.598-.51-.969-.908-.969-.908 0-.294-.144-1.543-.879-2.937-.736-1.398-1.323-3.526-1.544-5.95-.219-2.423-.147-4.554-.29-7.05-.152-2.495 1.025-5.653 1.98-11.089.955-5.435 1.177-5.065 2.426-7.269 1.248-2.203 1.026-.515.732-1.985-.294-1.467.516-2.054 1.104-3.009.587-.954.441-3.524.144-5.29-.294-1.761.52-2.127.662-2.935.148-.809-.219-1.027.223-3.673.44-2.642.66-7.932.66-10.28 0-2.35-.883-2.79-.883-2.79l.074 9.325c-.074.808-1.175 1.689-1.175 1.689s-4.039 0-4.775-.146a1.145 1.145 0 0 1 -.298-.108c-.517-.282-.73-.921-.73-.921l-.22-12.482c.147-.883.956-1.105.956-1.105l.292-1.542c.794-.75 2.265-.668 3.454-.436l.806-1.985s-.072-.882-.294-1.985c-.22-1.1.294-.661-1.1-1.835-1.398-1.174-3.159-3.156-3.746-6.243-.587-3.084-1.029-3.378-1.029-3.378-.588 1.248-.884 5.36-.806 6.244.071.881.587 1.174.587 1.174-.076 2.204-1.619 0-1.619 0-.293-.734.442-4.186.442-6.022 0-1.837.075-3.598.222-6.537.145-2.935.368-3.596 1.174-5.58.808-1.983.736 1.028 1.25-1.324.26-1.185.987-2.801 1.692-4.205.05-1.947-.016-3.932.071-4.752.147-1.395 1.101-1.543 1.395-1.837.296-.293 1.176-.293 1.544-1.32.367-1.029-.368-1.176-.66-3.968-.294-2.79 1.91-3.376 2.716-4.774.808-1.393 2.938-1.615 4.701-1.689 1.764-.07 3.013.59 3.968 1.03.954.443 1.32-.295 2.496-.734 1.174-.442 1.103-.66 2.717 0 1.615.659 2.864 1.177 2.864 1.177s-.072 1.246.294 0c.37-1.25 1.397-.443 1.985-1.032.587-.587.294-.88-.66-2.643-.955-1.763.294-2.645 0-4.112-.294-1.471-.294-4.63.442-5.949.732-1.322 2.275-2.423 3.23-2.57.954-.146 3.6-.516 4.775-.588 1.176-.072 2.644.882 3.746 1.91 1.103 1.03 1.25 2.056 1.544 3.305.294 1.247-.222 5.141-.222 5.141.955 2.498-1.1 4.478-1.1 4.478.44 2.132-1.692 4.041-1.692 4.041.694 2.258 2.11 3.5 3.148 3.45 1.038-.051 1.714 1.04 2.805 2.025s1.714.985 2.753 1.92c1.035.933 1.295 2.49 2.282 3.84.986 1.351 1.142 1.351 2.7 2.18 1.556.833 1.194 3.115 2.284 3.892 1.09.78 1.715 0 2.647.311.935.312.935 2.025 1.766 2.025.83 0 1.454.937 2.027 1.196.57.26 1.66.157 2.853.311 1.195.155 2.128 1.713 2.543 1.867.417.156 3.43-.415 4.26-.36.83.05 1.452 1.347 1.816 1.503.363.154 2.7.103 3.322 0 .625-.104.727-.415 1.403-1.66.675-1.246 2.855-1.61 3.218-1.867.363-.261.727-.573.26-.885-.469-.312-.26-1.556-.26-1.556s3.531.155 3.948.155c.414 0 .155.674-.364.985-.519.31-.157 1.713-.157 1.713s-2.545-.31-.05.21c2.49.518 1.764 5.863 1.764 5.863 1.712.938-2.233 2.026-2.233 2.026l.3 75.147c5.02-.505 1.933 14.104 1.933 14.104 9.933 18.67 18.672 29.696 26.22 33.075 7.774 3.482 22.221 3.232 33.375 6.461 8.351 2.418 39.458 14.676 81.636 16.996 8.76.482 13.488.96 14.185 1.436 14.82.358 47.516.944 98.09 1.758v4h-1366v-4c15.623-3.578 23.957-5.483 25-5.715 1.564-.35 22.176 3.32 25.826 1.922 3.651-1.398 7.171-.991 9.778-1.922 2.608-.933 7.042-.874 12.125-2.448 3.458-1.07 14.277-5.853 17.407-5.84 3.129.015 16.688 1.618 22.164 2.549 5.475.933 10.169 1.515 41.199 6.29 31.03 4.779 49.283 2.33 66.232 1.749 16.95-.583 23.99-1.514 29.466-1.281s24.511 2.33 39.635 1.398 16.428.349 30.509 1.514c14.08 1.165 79.53 1.049 125.424-1.98 45.892-3.03 8.644-2.453 70.143.699 61.994 3.178 124.837 3.84 158.214 1.395 33.377-2.448 34.029-4.348 41.069-3.766 7.04.583 45.307 5.05 98.762 2.487s34.876-2.44 45.567-.11 16.167-.115 24.251 0c8.083.118 17.992 3.113 29.726 2.18 4.23-.335 12.127-1.319 20.938-2.532zm102.195-130.282-1.075 2.31c.633.167 1.075.334 1.075.334-.148-.878 1.615-4.847 1.615-5.508 0-.66-.807-.072-.807-.072zm13.69 68.217s.281 0 .748-.003l.608-40.494c-.377.857-.663 1.505-.806 1.76-.684 1.234-2.053 4.381-2.74 6.298-.684 1.917 0 2.875-.272 4.245-.274 1.367-1.098 1.641-1.37 4.105-.274 2.462-3.423 5.75-2.874 7.118.545 1.369-1.506 4.927-1.234 7.252.275 2.329-.41 5.342.138 7.12.547 1.78 0 4.79 0 4.79-.123.546-.263 1.03-.417 1.466 1.004-.665 2.004-1.906 2.47-4.476.823-4.518 5.75.82 5.75.82zm11.65-.82c.102-.12.197-.255.261-.41.414-.957-.957-6.16-.957-8.214 0-2.051 1.232-3.01 2.33-4.242 1.095-1.234.137-2.465.41-3.97.274-1.505.684-2.874.957-5.747.277-2.877 2.738-9.994 4.655-12.32 1.917-2.33 2.192-1.78.273-2.33-1.916-.546-3.694-2.325-5.61-4.65-1.918-2.33-5.477-6.847-7.122-7.12-.928-.154-2.6 3.013-4.002 6.017l-1.18 43.794c2.033-.032 5.443-.12 7.373-.398.5-.072 1.422-.219 2.612-.41zm22.307-37.369c.274 2.19-.958 4.381-1.506 6.16-.55 1.78-1.507 2.191-2.738 6.297-1.233 4.105-1.37 6.16-2.464 8.486-1.097 2.326-3.56 3.423-2.738 3.696.82.272.137 3.286.137 3.286s1.231 1.917 2.05 2.463c.824.548 2.604.824 5.203.685 2.603-.137 3.973.412 2.74 2.6-.168.297-.482.581-.9.852 3.562.235 3.337 1.79 10.211-1.264 3.75-1.663 10.455-2.698 16.157-3.309l-1.61-74.123c-.727-.052-1.267-.587-1.267-.587l-.275 1.775-.685-1.23s-.68 1.643-2.597 1.916c-1.92.275-2.194-.822-2.877-1.23-.687-.413-1.78.408-3.152.819-1.37.41-2.05-.275-3.285-1.092-1.233-.825-3.283.406-3.969.406s-2.055-.406-2.6-.819c-.55-.412-3.698-.82-4.52-.685-.82.136-.82-.545-1.504-1.502-.686-.96-2.193-.824-3.153-1.099-.957-.274-2.6-1.094-4.518-2.735-1.916-1.644-5.75-4.656-5.75-4.656.275.549-1.917 2.19-1.368 3.287.548 1.094-.683 3.558-.683 3.558s.683.136 1.093 1.095c.412.958-1.093 5.61-1.093 5.61h2.6c2.602 0 .96 1.505 1.78 2.33.822.818 1.231.957 1.37 3.011.135 2.053.546 4.381.41 6.433-.138 2.052.136 2.464.136 2.464s-.546 0-1.779.41c-1.234.41-.823 1.507-.823 1.507s-1.777-1.097.274.958c2.054 2.052 9.45 14.92 11.775 16.972 0 0 1.642 5.066 1.918 7.255zm-50.46-62.298c.037-.077.07-.14.095-.187.367-.736 1.47-.588 1.615-2.353.148-1.76-1.542-.072-1.542-.072-.54.792-.425 1.794-.169 2.612z" fill="#fff" fillRule="evenodd"/></svg>