<svg width="2732" height="18" xmlns="http://www.w3.org/2000/svg"><g fill="#4594B3" fillRule="evenodd"><path d="M0 0v17.068c15-3.72 10.71.733 23.657-1.542 21.85-3.817 43.18-5.07 65.059-2.179 21.092 2.776 42.232.321 63.43 2.133 22.471 1.928 44.387 4.936 67.367-.858 14.787-3.72 31.566.955 47.455 1.013 6.353.029 12.745 2.821 19.08 1.433 1.916-.414 3.603-2.11 5.49-2.275 19.741-1.812 39.53-4.897 59.262-4.752 26.736.202 43.952 8.887 70.2 3.306 26.248-5.58-5-1.88 18-3.306 21.386-1.326 51.532 10.102 81 4 20.7-4.3 66.783.839 88 0 44.321-1.745 75-5.041 120-4 53.14 1.23 48.922 2.256 60 3.306 48.978 4.666 72.926-1.027 122 1.788 26.593 1.542 46.959-1.683 73.705-1.047 11.47.28 22.788-6.016 34.268-3.953 7.676 1.378 7.908 7.884 23.076 2.322C1057 6.61 1081 10.57 1101.163 14.377c6.794 1.282-14.97-.182 24.043-2.419 31.794-1.823 41.801-2.93 62.865-.81 13.282 1.34 26.563 3.056 39.845 3.345 21.322.463 42.884 1.745 63.928-.713 29.947-3.5 74.156.357 74.156-3.374V0H0z"/><path d="M2732 0v17.068c-15-3.72-10.71.733-23.657-1.542-21.85-3.817-43.18-5.07-65.059-2.179-21.092 2.776-42.232.321-63.43 2.133-22.471 1.928-44.387 4.936-67.367-.858-14.787-3.72-31.566.955-47.455 1.013-6.353.029-12.745 2.821-19.08 1.433-1.916-.414-3.603-2.11-5.49-2.275-19.741-1.812-39.53-4.897-59.261-4.752-26.737.202-43.953 8.887-70.201 3.306-26.248-5.58 5-1.88-18-3.306-21.386-1.326-51.532 10.102-81 4-20.7-4.3-66.783.839-88 0-44.321-1.745-75-5.041-120-4-53.14 1.23-48.922 2.256-60 3.306-48.978 4.666-72.926-1.027-122 1.788-26.593 1.542-46.959-1.683-73.705-1.047-11.47.28-22.788-6.016-34.268-3.953-7.676 1.378-7.908 7.884-23.076 2.322C1675 6.61 1651 10.57 1630.837 14.377c-6.794 1.282 14.97-.182-24.043-2.419-31.794-1.823-41.801-2.93-62.865-.81-13.282 1.34-26.563 3.056-39.845 3.345-21.322.463-42.884 1.745-63.928-.713-29.947-3.5-74.156.357-74.156-3.374V0h1366z"/></g></svg>