<svg enable-background="new 0 0 1366 18" viewBox="0 0 1366 18" xmlns="http://www.w3.org/2000/svg"><path clip-rule="evenodd" d="m0 0v17.1c15-3.7 10.7.7 23.7-1.5 21.9-3.8 43.2-5.1 65.1-2.2 21.1 2.8 42.2.3 63.4 2.1 22.5 1.9 44.4 4.9 67.4-.9 14.8-3.7 31.6 1 47.5 1 6.4 0 12.7 2.8 19.1 1.4 1.9-.4 3.6-2.1 5.5-2.3 19.7-1.8 39.5-4.9 59.3-4.8 26.7.2 44 8.9 70.2 3.3s-5-1.9 18-3.3c21.4-1.3 51.5 10.1 81 4 20.7-4.3 66.8.8 88 0 44.3-1.7 75-5 120-4 53.1 1.2 48.9 2.3 60 3.3 49 4.7 72.9-1 122 1.8 26.6 1.5 47-1.7 73.7-1 11.5.3 22.8-6 34.3-4 7.7 1.4 7.9 7.9 23.1 2.3 16-5.8 40-1.9 60.1 1.9 6.8 1.3-15-.2 24-2.4 31.8-1.8 41.8-2.9 62.9-.8 13.3 1.3 26.6 3.1 39.8 3.3 21.3.5 42.9 1.7 63.9-.7 29.9-3.5 74.2.4 74.2-3.4v-10.2z" fill="#f3f4f5" fillRule="evenodd"/></svg>